<?xml version="1.0" encoding="UTF-8"?>
<svg id="VECTOR_ARTWORK" data-name="VECTOR ARTWORK" xmlns="http://www.w3.org/2000/svg" viewBox="0 0 750 450">
  <defs>
    <style>
      .cls-1 {
        fill-rule: evenodd;
      }

      .cls-1, .cls-2, .cls-3, .cls-4, .cls-5, .cls-6, .cls-7, .cls-8 {
        stroke-width: 0px;
      }

      .cls-1, .cls-3 {
        fill: #501eb6;
      }

      .cls-4 {
        fill: #444446;
      }

      .cls-5 {
        fill: #1e1743;
      }

      .cls-6 {
        fill: #fff;
      }

      .cls-7 {
        fill: red;
      }

      .cls-8 {
        fill: #ed2224;
      }
    </style>
  </defs>
  <g>
    <path class="cls-5" d="M285.44,396.43c-3.26,0-6.17-.61-8.75-1.84-2.52-1.29-4.52-3.01-5.99-5.16-1.41-2.15-2.12-4.58-2.12-7.28,0-3.32.86-5.93,2.58-7.83,1.72-1.97,4.52-3.38,8.39-4.24,3.87-.86,9.06-1.29,15.57-1.29h3.23v-1.94c0-3.07-.68-5.28-2.03-6.63-1.35-1.35-3.62-2.03-6.82-2.03-2.52,0-5.1.4-7.74,1.2-2.64.74-5.31,1.9-8.02,3.5l-3.32-7.83c1.6-1.11,3.47-2.06,5.62-2.86,2.21-.86,4.52-1.5,6.91-1.94,2.46-.49,4.76-.74,6.91-.74,6.57,0,11.46,1.54,14.65,4.61,3.19,3.01,4.79,7.71,4.79,14.1v27.28h-10.78v-7.19c-1.04,2.52-2.7,4.52-4.98,5.99-2.27,1.41-4.98,2.12-8.11,2.12ZM287.83,388.51c3.01,0,5.5-1.04,7.46-3.13,2.03-2.09,3.04-4.73,3.04-7.93v-2.03h-3.13c-5.77,0-9.8.46-12.07,1.38-2.21.86-3.32,2.46-3.32,4.79,0,2.03.71,3.69,2.12,4.98,1.41,1.29,3.38,1.94,5.9,1.94Z"/>
    <path class="cls-5" d="M342.01,413.02c-4.18,0-8.11-.49-11.8-1.47-3.62-.92-6.82-2.37-9.58-4.33l3.32-8.02c2.58,1.72,5.34,2.98,8.29,3.78,2.95.86,5.9,1.29,8.85,1.29,8.23,0,12.35-3.96,12.35-11.89v-6.17c-1.29,2.52-3.29,4.52-5.99,5.99-2.64,1.47-5.59,2.21-8.85,2.21-4.05,0-7.59-.92-10.6-2.76-3.01-1.9-5.34-4.55-7-7.93-1.66-3.38-2.49-7.31-2.49-11.8s.83-8.39,2.49-11.7c1.66-3.38,3.99-5.99,7-7.83,3.01-1.9,6.54-2.86,10.6-2.86,3.38,0,6.39.77,9.03,2.3,2.64,1.47,4.58,3.47,5.81,5.99v-7.37h11.24v40.55c0,7.31-1.93,12.81-5.8,16.49-3.87,3.69-9.49,5.53-16.86,5.53ZM341.73,385.65c3.56,0,6.39-1.23,8.48-3.69,2.09-2.46,3.13-5.81,3.13-10.04s-1.04-7.56-3.13-9.95c-2.09-2.46-4.91-3.69-8.48-3.69s-6.39,1.23-8.48,3.69c-2.09,2.4-3.13,5.71-3.13,9.95s1.04,7.59,3.13,10.04c2.09,2.46,4.91,3.69,8.48,3.69Z"/>
    <path class="cls-5" d="M397.16,396.43c-4.67,0-8.72-.95-12.16-2.86-3.44-1.9-6.11-4.61-8.02-8.11-1.9-3.56-2.86-7.74-2.86-12.53s.95-8.94,2.86-12.44c1.9-3.5,4.58-6.2,8.02-8.11,3.44-1.9,7.5-2.86,12.16-2.86s8.72.95,12.16,2.86c3.44,1.9,6.11,4.61,8.02,8.11,1.9,3.5,2.86,7.65,2.86,12.44s-.95,8.97-2.86,12.53c-1.9,3.5-4.58,6.2-8.02,8.11-3.44,1.9-7.5,2.86-12.16,2.86ZM397.16,387.68c3.44,0,6.2-1.23,8.29-3.69,2.09-2.52,3.13-6.2,3.13-11.06s-1.04-8.57-3.13-10.97c-2.09-2.46-4.85-3.69-8.29-3.69s-6.21,1.23-8.29,3.69c-2.09,2.4-3.13,6.05-3.13,10.97s1.04,8.54,3.13,11.06c2.09,2.46,4.85,3.69,8.29,3.69Z"/>
    <path class="cls-5" d="M442.07,395.51l-19.53-45.06h12.26l12.53,31.52,12.99-31.52h11.52l-19.81,45.06h-9.95Z"/>
    <path class="cls-5" d="M523.06,396.43c-4.73,0-8.85-.95-12.35-2.86-3.5-1.97-6.2-4.73-8.11-8.29-1.9-3.56-2.86-7.74-2.86-12.53s.95-8.91,2.86-12.35c1.9-3.5,4.61-6.17,8.11-8.02,3.5-1.9,7.62-2.86,12.35-2.86,2.89,0,5.74.46,8.57,1.38,2.83.92,5.16,2.21,7,3.87l-3.41,8.02c-1.6-1.41-3.41-2.49-5.44-3.23-1.97-.74-3.87-1.11-5.71-1.11-3.99,0-7.1,1.26-9.31,3.78-2.15,2.46-3.22,5.99-3.22,10.6s1.07,8.14,3.22,10.78c2.21,2.58,5.31,3.87,9.31,3.87,1.78,0,3.69-.37,5.71-1.11,2.03-.74,3.84-1.84,5.44-3.32l3.41,8.11c-1.84,1.6-4.21,2.89-7.09,3.87-2.83.92-5.65,1.38-8.48,1.38Z"/>
    <path class="cls-5" d="M545.7,395.51v-64.97h11.52v26.45c1.54-2.46,3.59-4.3,6.17-5.53,2.58-1.29,5.44-1.94,8.57-1.94,10.63,0,15.94,6.17,15.94,18.52v27.46h-11.52v-26.91c0-3.5-.68-6.05-2.03-7.65-1.29-1.6-3.32-2.4-6.08-2.4-3.38,0-6.08,1.08-8.11,3.23-1.97,2.09-2.95,4.88-2.95,8.39v25.34h-11.52Z"/>
    <path class="cls-3" d="M471.95,379.05h16.46v16.46h-16.46v-16.46Z"/>
    <polygon class="cls-1" points="234.41 381.65 227.92 381.65 227.92 398.11 175.26 398.11 175.26 345.45 227.92 345.45 227.92 355.33 227.92 361.91 218.04 361.91 218.04 355.33 185.13 355.33 185.13 388.24 218.04 388.24 218.04 371.78 227.92 371.78 227.92 371.78 234.41 371.78 241.08 371.78 241.08 371.6 241.08 332.29 162.09 332.29 162.09 411.27 241.08 411.27 241.08 381.65 241.08 381.65 234.41 381.65"/>
  </g>
  <g>
    <path id="path3133" class="cls-8" d="M262.99,43.35s-14.47-6.37-38.7-6.37h0c-24.22,0-38.7,6.37-38.7,6.37,0,0-1.3,28.07,4.25,43.93,5.64,16.44,18.27,29.53,34.5,35.74h0c16.22-6.22,28.86-19.3,34.5-35.74,5.5-15.87,4.19-43.93,4.19-43.93"/>
    <path id="path3135" class="cls-6" d="M250,67.58v15.46h-18.05v18.05h-15.45v-18.05h-18.05v-15.46h18.05v-18.05h15.46v18.05h18.05"/>
    <g id="b1yhp1bwV">
      <g>
        <path class="cls-4" d="M230.37,188.31h-32.76c-.91,0-1.82-.11-2.71-.3-.98-.21-1.94-.52-2.86-.92-.96-.44-1.87-.98-2.71-1.62-.88-.69-1.66-1.5-2.29-2.42-.69-1.01-1.23-2.11-1.58-3.28-.42-1.38-.62-2.81-.59-4.25v-24.55c.03-1.92.44-3.82,1.22-5.57.43-.97.98-1.88,1.64-2.71.69-.88,1.51-1.65,2.43-2.28,1-.7,2.1-1.24,3.27-1.59,1.36-.41,2.77-.61,4.18-.59h32.76v9.08h-32.76c-1-.07-1.98.28-2.72.94-.68.77-1.02,1.77-.94,2.79v24.53c-.07,1,.28,1.98.97,2.71.73.67,1.71,1.02,2.71.96h32.75v9.09h0Z"/>
        <path class="cls-4" d="M248.12,158.69h31.85v-20.47h9.09v50.09h-9.09v-20.47h-31.85v20.47h-9.04v-50.09h9.09v20.47h-.05Z"/>
        <path class="cls-4" d="M368.98,188.31h-41.41c-.62,0-1.24-.11-1.82-.35-1.1-.43-1.98-1.31-2.41-2.41-.24-.58-.36-1.19-.35-1.82v-45.52h9.08v41h36.93v9.09h-.02Z"/>
        <path class="cls-4" d="M427.45,168.05c.03,2.88-.5,5.74-1.57,8.42-1,2.48-2.48,4.73-4.36,6.64-1.89,1.88-4.15,3.36-6.63,4.34-2.65,1.06-5.48,1.59-8.33,1.56h-12.29c-2.86.03-5.69-.5-8.35-1.56-2.48-.98-4.74-2.46-6.64-4.34-1.89-1.9-3.38-4.15-4.38-6.64-1.08-2.67-1.62-5.54-1.59-8.42v-9.56c-.03-2.88.51-5.73,1.59-8.4,2.01-5.02,5.99-8.99,11.02-10.99,2.65-1.06,5.49-1.6,8.35-1.57h12.29c2.85-.03,5.69.5,8.33,1.57,2.47,1,4.73,2.48,6.63,4.35,1.89,1.9,3.37,4.15,4.36,6.64,1.06,2.67,1.6,5.52,1.57,8.4v9.56h0ZM418.37,158.5c.02-1.66-.27-3.32-.86-4.87-.54-1.4-1.36-2.67-2.41-3.74-1.07-1.05-2.34-1.87-3.74-2.41-1.53-.58-3.16-.87-4.8-.85h-12.31c-1.65-.02-3.29.27-4.83.85-1.4.54-2.68,1.36-3.76,2.41-1.06,1.06-1.89,2.34-2.43,3.74-.58,1.56-.87,3.21-.85,4.87v9.56c-.02,1.66.27,3.32.85,4.87.54,1.4,1.37,2.68,2.43,3.74,1.08,1.04,2.36,1.86,3.76,2.4,1.54.58,3.18.87,4.83.85h12.23c1.65.02,3.29-.27,4.84-.85,1.4-.54,2.68-1.36,3.75-2.41,1.06-1.06,1.89-2.33,2.43-3.74.59-1.56.88-3.21.85-4.87v-9.56h.01Z"/>
        <path class="cls-4" d="M485.86,183.73c0,.62-.11,1.24-.35,1.82-.22.54-.55,1.04-.97,1.45-.42.41-.91.73-1.44.96-.58.24-1.2.36-1.83.35h-32.75c-.91,0-1.82-.11-2.71-.3-.98-.21-1.95-.52-2.87-.92-.96-.44-1.87-.98-2.71-1.62-.88-.69-1.66-1.5-2.29-2.42-.69-1.01-1.23-2.11-1.58-3.28-.42-1.38-.62-2.81-.59-4.25v-24.55c.01-1.92.43-3.82,1.22-5.57.43-.97.98-1.88,1.64-2.71.69-.88,1.51-1.65,2.43-2.28,1-.7,2.1-1.24,3.27-1.59,1.36-.41,2.77-.61,4.19-.59h36.89v9.08h-36.89c-1-.07-1.98.27-2.73.94-.68.77-1.02,1.77-.94,2.79v24.53c-.07,1,.28,1.98.97,2.71.73.67,1.71,1.02,2.71.96h28.25v-11.38h-24.16v-9.15h28.67c.62,0,1.24.12,1.82.36.55.23,1.04.57,1.45,1,.4.42.73.92.96,1.45.24.56.36,1.16.35,1.76v20.47h.01Z"/>
        <path class="cls-4" d="M504.52,188.31h-9.13v-50.09h9.13v50.09Z"/>
        <path class="cls-4" d="M565.15,184.43c0,.62-.12,1.24-.37,1.82-.23.54-.56,1.03-.98,1.44-.41.42-.91.75-1.45.97-.56.24-1.16.35-1.77.35-.58,0-1.16-.11-1.7-.32-.58-.23-1.11-.59-1.52-1.06l-33.18-34.64v35.28h-9.04v-46.17c0-.9.27-1.79.79-2.53.51-.74,1.2-1.32,2.01-1.7.84-.35,1.77-.44,2.66-.25.89.17,1.71.61,2.34,1.26l33.18,34.62v-35.28h9.09v46.22h-.05Z"/>
      </g>
      <g>
        <path class="cls-4" d="M230.37,188.31h-32.76c-.91,0-1.82-.11-2.71-.3-.98-.21-1.94-.52-2.86-.92-.96-.44-1.87-.98-2.71-1.62-.88-.69-1.66-1.5-2.29-2.42-.69-1.01-1.23-2.11-1.58-3.28-.42-1.38-.62-2.81-.59-4.25v-24.55c.03-1.92.44-3.82,1.22-5.57.43-.97.98-1.88,1.64-2.71.69-.88,1.51-1.65,2.43-2.28,1-.7,2.1-1.24,3.27-1.59,1.36-.41,2.77-.61,4.18-.59h32.76v9.08h-32.76c-1-.07-1.98.28-2.72.94-.68.77-1.02,1.77-.94,2.79v24.53c-.07,1,.28,1.98.97,2.71.73.67,1.71,1.02,2.71.96h32.75v9.09h0Z"/>
        <path class="cls-4" d="M248.12,158.69h31.85v-20.47h9.09v50.09h-9.09v-20.47h-31.85v20.47h-9.04v-50.09h9.09v20.47h-.05Z"/>
        <path class="cls-4" d="M368.98,188.31h-41.41c-.62,0-1.24-.11-1.82-.35-1.1-.43-1.98-1.31-2.41-2.41-.24-.58-.36-1.19-.35-1.82v-45.52h9.08v41h36.93v9.09h-.02Z"/>
        <path class="cls-4" d="M427.45,168.05c.03,2.88-.5,5.74-1.57,8.42-1,2.48-2.48,4.73-4.36,6.64-1.89,1.88-4.15,3.36-6.63,4.34-2.65,1.06-5.48,1.59-8.33,1.56h-12.29c-2.86.03-5.69-.5-8.35-1.56-2.48-.98-4.74-2.46-6.64-4.34-1.89-1.9-3.38-4.15-4.38-6.64-1.08-2.67-1.62-5.54-1.59-8.42v-9.56c-.03-2.88.51-5.73,1.59-8.4,2.01-5.02,5.99-8.99,11.02-10.99,2.65-1.06,5.49-1.6,8.35-1.57h12.29c2.85-.03,5.69.5,8.33,1.57,2.47,1,4.73,2.48,6.63,4.35,1.89,1.9,3.37,4.15,4.36,6.64,1.06,2.67,1.6,5.52,1.57,8.4v9.56h0ZM418.37,158.5c.02-1.66-.27-3.32-.86-4.87-.54-1.4-1.36-2.67-2.41-3.74-1.07-1.05-2.34-1.87-3.74-2.41-1.53-.58-3.16-.87-4.8-.85h-12.31c-1.65-.02-3.29.27-4.83.85-1.4.54-2.68,1.36-3.76,2.41-1.06,1.06-1.89,2.34-2.43,3.74-.58,1.56-.87,3.21-.85,4.87v9.56c-.02,1.66.27,3.32.85,4.87.54,1.4,1.37,2.68,2.43,3.74,1.08,1.04,2.36,1.86,3.76,2.4,1.54.58,3.18.87,4.83.85h12.23c1.65.02,3.29-.27,4.84-.85,1.4-.54,2.68-1.36,3.75-2.41,1.06-1.06,1.89-2.33,2.43-3.74.59-1.56.88-3.21.85-4.87v-9.56h.01Z"/>
        <path class="cls-4" d="M485.86,183.73c0,.62-.11,1.24-.35,1.82-.22.54-.55,1.04-.97,1.45-.42.41-.91.73-1.44.96-.58.24-1.2.36-1.83.35h-32.75c-.91,0-1.82-.11-2.71-.3-.98-.21-1.95-.52-2.87-.92-.96-.44-1.87-.98-2.71-1.62-.88-.69-1.66-1.5-2.29-2.42-.69-1.01-1.23-2.11-1.58-3.28-.42-1.38-.62-2.81-.59-4.25v-24.55c.01-1.92.43-3.82,1.22-5.57.43-.97.98-1.88,1.64-2.71.69-.88,1.51-1.65,2.43-2.28,1-.7,2.1-1.24,3.27-1.59,1.36-.41,2.77-.61,4.19-.59h36.89v9.08h-36.89c-1-.07-1.98.27-2.73.94-.68.77-1.02,1.77-.94,2.79v24.53c-.07,1,.28,1.98.97,2.71.73.67,1.71,1.02,2.71.96h28.25v-11.38h-24.16v-9.15h28.67c.62,0,1.24.12,1.82.36.55.23,1.04.57,1.45,1,.4.42.73.92.96,1.45.24.56.36,1.16.35,1.76v20.47h.01Z"/>
        <path class="cls-4" d="M504.52,188.31h-9.13v-50.09h9.13v50.09Z"/>
        <path class="cls-4" d="M565.15,184.43c0,.62-.12,1.24-.37,1.82-.23.54-.56,1.03-.98,1.44-.41.42-.91.75-1.45.97-.56.24-1.16.35-1.77.35-.58,0-1.16-.11-1.7-.32-.58-.23-1.11-.59-1.52-1.06l-33.18-34.64v35.28h-9.04v-46.17c0-.9.27-1.79.79-2.53.51-.74,1.2-1.32,2.01-1.7.84-.35,1.77-.44,2.66-.25.89.17,1.71.61,2.34,1.26l33.18,34.62v-35.28h9.09v46.22h-.05Z"/>
      </g>
      <g>
        <path class="cls-4" d="M230.37,188.31h-32.76c-.91,0-1.82-.11-2.71-.3-.98-.21-1.94-.52-2.86-.92-.96-.44-1.87-.98-2.71-1.62-.88-.69-1.66-1.5-2.29-2.42-.69-1.01-1.23-2.11-1.58-3.28-.42-1.38-.62-2.81-.59-4.25v-24.55c.03-1.92.44-3.82,1.22-5.57.43-.97.98-1.88,1.64-2.71.69-.88,1.51-1.65,2.43-2.28,1-.7,2.1-1.24,3.27-1.59,1.36-.41,2.77-.61,4.18-.59h32.76v9.08h-32.76c-1-.07-1.98.28-2.72.94-.68.77-1.02,1.77-.94,2.79v24.53c-.07,1,.28,1.98.97,2.71.73.67,1.71,1.02,2.71.96h32.75v9.09h0Z"/>
        <path class="cls-4" d="M248.12,158.69h31.85v-20.47h9.09v50.09h-9.09v-20.47h-31.85v20.47h-9.04v-50.09h9.09v20.47h-.05Z"/>
        <path class="cls-4" d="M368.98,188.31h-41.41c-.62,0-1.24-.11-1.82-.35-1.1-.43-1.98-1.31-2.41-2.41-.24-.58-.36-1.19-.35-1.82v-45.52h9.08v41h36.93v9.09h-.02Z"/>
        <path class="cls-4" d="M427.45,168.05c.03,2.88-.5,5.74-1.57,8.42-1,2.48-2.48,4.73-4.36,6.64-1.89,1.88-4.15,3.36-6.63,4.34-2.65,1.06-5.48,1.59-8.33,1.56h-12.29c-2.86.03-5.69-.5-8.35-1.56-2.48-.98-4.74-2.46-6.64-4.34-1.89-1.9-3.38-4.15-4.38-6.64-1.08-2.67-1.62-5.54-1.59-8.42v-9.56c-.03-2.88.51-5.73,1.59-8.4,2.01-5.02,5.99-8.99,11.02-10.99,2.65-1.06,5.49-1.6,8.35-1.57h12.29c2.85-.03,5.69.5,8.33,1.57,2.47,1,4.73,2.48,6.63,4.35,1.89,1.9,3.37,4.15,4.36,6.64,1.06,2.67,1.6,5.52,1.57,8.4v9.56h0ZM418.37,158.5c.02-1.66-.27-3.32-.86-4.87-.54-1.4-1.36-2.67-2.41-3.74-1.07-1.05-2.34-1.87-3.74-2.41-1.53-.58-3.16-.87-4.8-.85h-12.31c-1.65-.02-3.29.27-4.83.85-1.4.54-2.68,1.36-3.76,2.41-1.06,1.06-1.89,2.34-2.43,3.74-.58,1.56-.87,3.21-.85,4.87v9.56c-.02,1.66.27,3.32.85,4.87.54,1.4,1.37,2.68,2.43,3.74,1.08,1.04,2.36,1.86,3.76,2.4,1.54.58,3.18.87,4.83.85h12.23c1.65.02,3.29-.27,4.84-.85,1.4-.54,2.68-1.36,3.75-2.41,1.06-1.06,1.89-2.33,2.43-3.74.59-1.56.88-3.21.85-4.87v-9.56h.01Z"/>
        <path class="cls-4" d="M485.86,183.73c0,.62-.11,1.24-.35,1.82-.22.54-.55,1.04-.97,1.45-.42.41-.91.73-1.44.96-.58.24-1.2.36-1.83.35h-32.75c-.91,0-1.82-.11-2.71-.3-.98-.21-1.95-.52-2.87-.92-.96-.44-1.87-.98-2.71-1.62-.88-.69-1.66-1.5-2.29-2.42-.69-1.01-1.23-2.11-1.58-3.28-.42-1.38-.62-2.81-.59-4.25v-24.55c.01-1.92.43-3.82,1.22-5.57.43-.97.98-1.88,1.64-2.71.69-.88,1.51-1.65,2.43-2.28,1-.7,2.1-1.24,3.27-1.59,1.36-.41,2.77-.61,4.19-.59h36.89v9.08h-36.89c-1-.07-1.98.27-2.73.94-.68.77-1.02,1.77-.94,2.79v24.53c-.07,1,.28,1.98.97,2.71.73.67,1.71,1.02,2.71.96h28.25v-11.38h-24.16v-9.15h28.67c.62,0,1.24.12,1.82.36.55.23,1.04.57,1.45,1,.4.42.73.92.96,1.45.24.56.36,1.16.35,1.76v20.47h.01Z"/>
        <path class="cls-4" d="M504.52,188.31h-9.13v-50.09h9.13v50.09Z"/>
        <path class="cls-4" d="M565.15,184.43c0,.62-.12,1.24-.37,1.82-.23.54-.56,1.03-.98,1.44-.41.42-.91.75-1.45.97-.56.24-1.16.35-1.77.35-.58,0-1.16-.11-1.7-.32-.58-.23-1.11-.59-1.52-1.06l-33.18-34.64v35.28h-9.04v-46.17c0-.9.27-1.79.79-2.53.51-.74,1.2-1.32,2.01-1.7.84-.35,1.77-.44,2.66-.25.89.17,1.71.61,2.34,1.26l33.18,34.62v-35.28h9.09v46.22h-.05Z"/>
      </g>
    </g>
    <g id="aeUwZ4rQI">
      <path class="cls-8" d="M312.42,164.1c0,.91-.18,1.8-.54,2.63-.36.79-.85,1.51-1.47,2.12-.61.61-1.33,1.09-2.12,1.43-.82.35-1.69.53-2.58.52-.9,0-1.8-.17-2.63-.52-.79-.34-1.51-.82-2.12-1.43-1.92-1.94-2.49-4.84-1.44-7.36.34-.79.83-1.51,1.44-2.12.61-.61,1.33-1.11,2.12-1.45.83-.37,1.73-.56,2.63-.55.89,0,1.77.18,2.58.55.79.35,1.51.84,2.12,1.45.61.62,1.1,1.34,1.47,2.12.36.82.55,1.71.54,2.6Z"/>
    </g>
    <g>
      <path class="cls-7" d="M190.39,256.78c0,.9.13,1.79.39,2.64.22.73.58,1.41,1.06,2,.47.54,1.06.96,1.72,1.24.72.3,1.5.45,2.28.44,1.88-.02,3.69-.69,5.13-1.9v1.97c-1.64,1.13-3.59,1.71-5.58,1.66-1.01.01-2-.18-2.93-.57-.85-.37-1.6-.93-2.21-1.64-.65-.77-1.14-1.67-1.42-2.64-.35-1.16-.52-2.37-.5-3.58-.01-1.13.17-2.26.54-3.33.34-.97.86-1.88,1.53-2.66.64-.74,1.42-1.33,2.3-1.75,1.79-.81,3.84-.85,5.66-.1.78.35,1.47.88,2,1.55.57.72.99,1.55,1.23,2.44.29,1.04.44,2.11.42,3.19v1.01l-11.63.04ZM199.94,255.02c.06-1.39-.37-2.77-1.2-3.89-.79-.94-1.97-1.45-3.19-1.38-.65,0-1.29.12-1.89.36-.58.24-1.1.61-1.53,1.06-.45.49-.81,1.05-1.06,1.67-.3.7-.51,1.44-.61,2.2l9.47-.02Z"/>
      <path class="cls-7" d="M222.79,262.94c-2.23,1.28-4.76,1.95-7.34,1.94-1.51.03-3-.26-4.4-.84-1.26-.53-2.38-1.33-3.3-2.34-.95-1.03-1.67-2.25-2.12-3.58-.5-1.47-.75-3.02-.73-4.58,0-1.07.11-2.14.35-3.19.23-.99.59-1.95,1.06-2.86.89-1.75,2.25-3.22,3.93-4.25.88-.53,1.83-.94,2.82-1.21,1.08-.29,2.19-.43,3.3-.42,2.05-.03,4.09.37,5.97,1.19v2.3c-1.9-1.05-4.04-1.6-6.21-1.59-1.28-.02-2.55.24-3.73.75-1.08.48-2.04,1.19-2.82,2.07-.8.91-1.42,1.97-1.82,3.11-.44,1.25-.66,2.57-.66,3.9-.02,1.31.16,2.61.54,3.85.34,1.12.91,2.15,1.66,3.05.74.87,1.67,1.56,2.72,2.01,1.18.48,2.44.71,3.72.67,1.73.05,3.44-.36,4.96-1.19v-6.86h-5.12v-1.9h7.21v9.95h.01Z"/>
      <path class="cls-7" d="M234.25,264.82c-1.09.02-2.17-.18-3.19-.59-.92-.38-1.75-.95-2.42-1.69-.69-.75-1.22-1.64-1.54-2.61-.37-1.08-.55-2.22-.53-3.37-.02-1.22.17-2.43.56-3.59.34-1,.89-1.92,1.6-2.7.71-.74,1.57-1.31,2.52-1.69,1.06-.39,2.18-.59,3.3-.57,1.07-.01,2.13.18,3.13.56.91.36,1.72.93,2.37,1.66.68.77,1.19,1.67,1.5,2.64.36,1.14.53,2.33.51,3.52.01,1.17-.17,2.32-.54,3.43-.33.98-.85,1.88-1.54,2.65-.68.75-1.52,1.34-2.45,1.73-1.04.42-2.16.63-3.28.61ZM234.41,249.75c-.82-.01-1.63.14-2.39.46-.7.29-1.33.74-1.83,1.32-.53.62-.92,1.34-1.17,2.12-.28.93-.42,1.9-.4,2.87-.02.92.12,1.84.4,2.72.25.78.64,1.5,1.16,2.12.49.57,1.11,1.02,1.8,1.32,1.53.61,3.24.61,4.77,0,.68-.29,1.28-.74,1.76-1.31.49-.63.85-1.35,1.06-2.12.25-.92.38-1.87.36-2.82.12-1.77-.39-3.54-1.44-4.97-1.03-1.16-2.54-1.78-4.09-1.7Z"/>
      <path class="cls-7" d="M251.83,264.45h-1.91l-6.15-16.06h2.21l4.45,12.24c.24.63.41,1.29.51,1.95h.06c.1-.65.26-1.28.49-1.9l4.59-12.29h2.12l-6.37,16.06Z"/>
      <path class="cls-7" d="M261.82,256.78c0,.9.13,1.79.39,2.64.22.73.58,1.41,1.06,2,.47.54,1.05.97,1.71,1.24.72.3,1.5.44,2.28.44,1.88-.02,3.69-.69,5.13-1.9v1.97c-1.64,1.14-3.59,1.72-5.58,1.66-1.01.01-2-.18-2.93-.57-.86-.36-1.63-.92-2.24-1.64-.65-.78-1.14-1.67-1.43-2.64-.35-1.16-.52-2.37-.5-3.58-.01-1.14.17-2.26.55-3.33.33-.98.85-1.88,1.52-2.66.64-.74,1.42-1.33,2.3-1.75.91-.43,1.91-.65,2.92-.64.94-.02,1.88.17,2.74.54.78.35,1.47.88,2.01,1.55.56.73.98,1.56,1.23,2.44.29,1.04.43,2.11.42,3.19v1.01l-11.58.04ZM271.38,255.02c.06-1.39-.36-2.76-1.19-3.89-.79-.93-1.97-1.44-3.19-1.38-.65,0-1.29.12-1.89.36-.58.24-1.1.6-1.53,1.06-.45.49-.81,1.05-1.06,1.67-.3.7-.51,1.44-.61,2.2l9.46-.02Z"/>
      <path class="cls-7" d="M285.33,250.44c-.53-.37-1.17-.55-1.82-.52-.49,0-.97.1-1.41.31-.4.2-.76.48-1.06.82-.32.36-.58.76-.79,1.2-.21.46-.38.93-.51,1.42-.14.49-.23.98-.29,1.49-.06.48-.09.95-.08,1.43v7.86h-2v-16.06h2v3.44h.06c.17-.55.41-1.08.71-1.57.27-.44.6-.84,1-1.18.37-.31.78-.56,1.23-.73.45-.17.92-.26,1.4-.25.29,0,.58.02.87.06.24.04.47.1.7.19v2.12l-.02-.02Z"/>
      <path class="cls-7" d="M299.02,264.45v-9.26c0-3.62-1.32-5.43-3.95-5.44-.67,0-1.33.13-1.94.41-.59.27-1.12.67-1.55,1.16-.46.51-.82,1.1-1.06,1.74-.25.7-.38,1.44-.37,2.19v9.19h-2.01v-16.06h2.01v2.79h.06c1.02-2.02,3.12-3.26,5.38-3.19,1.53-.1,3.02.54,4.01,1.71,1.01,1.44,1.5,3.18,1.38,4.94v9.79l-1.96.02Z"/>
      <path class="cls-7" d="M326.04,264.45v-9.44c.02-.82-.05-1.64-.21-2.44-.11-.59-.34-1.14-.69-1.62-.3-.41-.7-.72-1.17-.91-.55-.19-1.13-.29-1.71-.28-.58,0-1.15.14-1.66.41-.53.28-1,.67-1.37,1.15-.41.51-.73,1.09-.93,1.71-.23.68-.34,1.4-.34,2.12v9.29h-2.01v-9.65c0-3.36-1.29-5.04-3.86-5.04-.58,0-1.15.13-1.67.39-.52.28-.97.66-1.34,1.13-.4.52-.7,1.1-.89,1.73-.23.72-.34,1.48-.33,2.24v9.21h-2.01v-16.05h2.01v2.61h.06c.93-1.87,2.86-3.03,4.95-2.98.54,0,1.08.08,1.59.25.98.33,1.81.97,2.38,1.84.29.43.51.9.66,1.4.49-1.05,1.25-1.95,2.2-2.6.91-.6,1.98-.91,3.07-.89,3.54,0,5.31,2.17,5.31,6.52v9.92h-2.04Z"/>
      <path class="cls-7" d="M333.85,256.78c0,.9.13,1.79.39,2.64.21.73.57,1.41,1.06,2,.47.54,1.06.96,1.72,1.24.72.3,1.5.45,2.28.44,1.88-.02,3.69-.69,5.13-1.9v1.97c-1.64,1.13-3.59,1.71-5.58,1.66-1.01.01-2-.18-2.93-.57-.86-.36-1.63-.92-2.24-1.64-.65-.78-1.14-1.67-1.43-2.64-.35-1.16-.52-2.37-.5-3.58-.01-1.14.17-2.26.55-3.33.33-.98.85-1.88,1.52-2.66.64-.74,1.42-1.33,2.3-1.75.91-.43,1.91-.65,2.92-.64.94-.02,1.88.17,2.74.54.78.35,1.47.88,2,1.55.57.72.99,1.55,1.23,2.44.29,1.04.44,2.11.42,3.19v1.01l-11.58.04ZM343.4,255.02c.05-1.39-.36-2.76-1.19-3.89-.79-.93-1.97-1.44-3.19-1.38-.65,0-1.29.11-1.89.36-.58.24-1.1.6-1.53,1.06-.45.49-.81,1.05-1.06,1.67-.3.7-.51,1.44-.61,2.2l9.46-.02Z"/>
      <path class="cls-7" d="M360.22,264.45v-9.26c0-3.62-1.32-5.43-3.95-5.44-.67,0-1.33.13-1.94.41-.59.27-1.12.67-1.55,1.16-.45.51-.81,1.1-1.06,1.74-.25.7-.37,1.44-.36,2.19v9.19h-2.01v-16.06h2.01v2.79h.06c1.01-2.02,3.11-3.26,5.37-3.19,1.54-.1,3.03.54,4.02,1.71,1.01,1.44,1.5,3.18,1.38,4.94v9.79l-1.97.02Z"/>
      <path class="cls-7" d="M373.93,264.26c-.7.35-1.48.53-2.26.52-2.59,0-3.9-1.5-3.9-4.48v-10.1h-2.82v-1.76h2.82v-4.05l2.01-.66v4.7h4.15v1.76h-4.15v9.83c-.07.82.12,1.65.54,2.36.45.52,1.12.79,1.8.72.64,0,1.27-.21,1.79-.57v1.77-.05Z"/>
    </g>
    <g>
      <path class="cls-2" d="M230.82,188.98h-33.14c-.92,0-1.83-.11-2.73-.3-1-.21-1.97-.52-2.9-.93-.97-.44-1.89-.99-2.73-1.65-.89-.69-1.67-1.51-2.31-2.43-.7-1.02-1.24-2.14-1.6-3.32-.42-1.38-.63-2.81-.61-4.25v-24.84c.01-.92.11-1.84.3-2.74.21-.99.52-1.96.93-2.89.44-.98,1-1.9,1.67-2.74.7-.89,1.52-1.67,2.45-2.31,1.01-.7,2.13-1.24,3.3-1.6,1.38-.42,2.81-.62,4.25-.59h33.1v9.17h-33.13c-1.01-.07-2,.28-2.75.96-.69.77-1.03,1.79-.96,2.82v24.77c-.19,1.85,1.16,3.51,3.01,3.71.23.02.46.02.69,0h33.1v9.17h.03Z"/>
      <path class="cls-2" d="M248.75,159.05h32.21v-20.67h9.18v50.6h-9.18v-20.68h-32.21v20.68h-9.17v-50.6h9.17v20.67Z"/>
    </g>
    <path class="cls-2" d="M199.21,217.28c-.04.6-.12,1.2-.23,1.79-.1.5-.24.99-.4,1.48-.14.42-.32.83-.52,1.23-.19.37-.39.74-.62,1.06l2.7,3.24h-2.77l-1.26-1.59c-.5.63-1.15,1.12-1.89,1.43-.81.31-1.67.46-2.54.44-.72.02-1.44-.09-2.12-.33-.58-.19-1.12-.51-1.57-.92-.44-.4-.78-.89-1-1.43-.24-.6-.35-1.24-.34-1.88-.05-1.07.28-2.13.93-2.97.69-.79,1.55-1.41,2.52-1.8-.39-.53-.75-1.09-1.06-1.67-.34-.63-.5-1.34-.49-2.05-.01-.59.1-1.17.32-1.71.2-.46.5-.87.87-1.2.37-.32.81-.55,1.27-.7.51-.16,1.04-.24,1.57-.23.49,0,.98.07,1.45.21.46.13.88.36,1.23.67.36.32.65.71.84,1.16.22.52.33,1.09.32,1.66,0,.49-.1.98-.31,1.43-.19.44-.46.84-.79,1.19-.32.36-.67.68-1.06.96-.39.26-.8.49-1.22.69l3.19,3.79c.3-.51.51-1.07.65-1.65.16-.76.26-1.54.3-2.31l2.04.03ZM189.03,221.67c0,.42.08.83.25,1.21.16.35.39.67.67.93.28.26.61.46.97.59.37.14.75.21,1.15.21.34,0,.67-.05.99-.17.28-.1.55-.23.81-.39.23-.15.44-.32.63-.52.18-.18.32-.35.45-.49l-3.73-4.62-.84.65c-.25.21-.48.44-.68.69-.2.25-.36.53-.48.83-.13.35-.19.71-.18,1.08h0ZM190.62,213.38c0,.53.15,1.05.44,1.5.28.44.6.87.94,1.26.27-.12.52-.27.75-.45.27-.19.52-.4.75-.64.23-.24.43-.51.58-.81.16-.3.24-.63.23-.97.06-.57-.13-1.15-.52-1.57-.37-.31-.84-.46-1.32-.45-.49,0-.97.18-1.32.53-.4.43-.6,1.01-.55,1.59h0Z"/>
    <path class="cls-2" d="M208.79,208.57h2.12v7.25h.05c.34-.56.81-1.03,1.37-1.37.73-.4,1.55-.59,2.38-.55,1.44-.03,2.81.65,3.66,1.82.42.58.73,1.24.91,1.93.2.75.3,1.53.3,2.3,0,.81-.09,1.61-.28,2.4-.17.73-.46,1.43-.86,2.06-.39.59-.9,1.08-1.51,1.44-.67.38-1.44.57-2.21.55-.47,0-.93-.06-1.38-.18-.37-.12-.73-.27-1.06-.47-.31-.17-.59-.39-.84-.64-.2-.21-.38-.44-.54-.68h0v1.69h-2l-.13-17.56ZM217.28,220.11c.02-.53-.03-1.07-.14-1.59-.11-.5-.29-.99-.54-1.43-.24-.42-.58-.78-.98-1.06-.43-.26-.94-.4-1.44-.38-.52-.01-1.03.12-1.48.38-.43.27-.79.63-1.06,1.06-.29.44-.5.93-.63,1.44-.13.54-.2,1.1-.2,1.66,0,.52.07,1.03.19,1.53.12.51.32,1,.59,1.44.27.43.63.79,1.06,1.06.45.29.98.43,1.52.41.52.01,1.02-.14,1.44-.45.4-.3.73-.68.97-1.11.26-.46.45-.95.56-1.47.12-.49.18-.99.17-1.5h-.04Z"/>
    <path class="cls-2" d="M222.33,214.18h1.95v1.85h0c.27-.61.69-1.14,1.23-1.53.49-.39,1.1-.6,1.72-.61.25,0,.5.02.75.05l.63.12v1.96c-.19-.07-.39-.13-.59-.16-.19-.03-.37-.05-.56-.05-.93,0-1.79.5-2.24,1.32-.61,1.08-.9,2.32-.84,3.56v5.44h-2.12l.07-11.94Z"/>
    <path class="cls-2" d="M233.45,211.51h-2.36v-2.47h2.36v2.47ZM231.23,214.18h2.12v11.94h-2.12v-11.94Z"/>
    <path class="cls-2" d="M237.14,214.18h2.02v1.9h0c.31-.68.83-1.25,1.49-1.6.67-.39,1.44-.59,2.22-.58,1.22-.09,2.41.42,3.19,1.36.75,1.11,1.13,2.44,1.06,3.78v7.09h-2.12v-6.18c.07-1.09-.11-2.17-.51-3.19-.37-.69-1.09-1.13-1.88-1.13-.54-.01-1.06.11-1.54.36-.43.25-.79.59-1.06,1.01-.3.48-.51,1.01-.62,1.56-.14.65-.21,1.32-.2,1.99v5.53h-2.12l.08-11.9Z"/>
    <path class="cls-2" d="M260.68,225.61c.11,1.54-.4,3.07-1.4,4.25-1.2,1.1-2.81,1.64-4.43,1.5h-.88c-.31-.02-.62-.07-.92-.13-.32-.06-.67-.15-1.06-.24-.39-.1-.78-.24-1.23-.41l.22-2.04c.4.19.76.36,1.06.5.31.13.63.25.96.34.31.09.63.15.96.18.35.04.71.07,1.06.06.98.06,1.94-.33,2.59-1.06.66-.86.98-1.92.92-2.99v-1.17h-.05c-.42.61-1,1.09-1.68,1.39-.67.3-1.39.45-2.12.46-.74.02-1.47-.15-2.12-.48-.6-.31-1.11-.76-1.51-1.31-.41-.56-.72-1.2-.9-1.87-.2-.73-.3-1.48-.3-2.23,0-.77.11-1.54.31-2.28.2-.73.52-1.42.94-2.04.42-.59.95-1.09,1.57-1.47.68-.39,1.45-.58,2.23-.56.83-.04,1.66.14,2.39.54.59.37,1.05.9,1.34,1.53h0v-1.78h1.93l.13,11.32ZM255.29,224.35c.47,0,.93-.1,1.35-.32.41-.2.78-.5,1.06-.86.3-.39.53-.83.68-1.3.16-.51.25-1.04.24-1.57,0-.6-.07-1.19-.2-1.77-.12-.52-.33-1.02-.63-1.47-.27-.43-.63-.79-1.06-1.06-.44-.25-.94-.38-1.44-.37-.49-.01-.98.13-1.38.41-.4.28-.73.64-.98,1.06-.27.44-.47.93-.59,1.43-.13.51-.19,1.03-.19,1.55,0,.54.07,1.08.22,1.6.13.48.34.94.62,1.35.25.38.59.7.99.92.39.25.85.38,1.32.38Z"/>
    <path class="cls-2" d="M269.55,229.36c.15.06.3.1.46.13.17.04.34.06.52.06.43,0,.85-.15,1.17-.44.31-.28.57-.6.78-.96.18-.31.33-.65.42-1,.05-.18.09-.37.12-.56-.01-.2-.06-.39-.14-.57l-.25-.69-3.8-11.15h2.28l3.05,9.88h0l3.1-9.88h2.12l-4.18,12.2c-.19.58-.4,1.16-.63,1.74-.2.56-.47,1.1-.81,1.59-.31.47-.71.87-1.19,1.17-.52.31-1.12.46-1.72.44-.28,0-.55,0-.83-.05l-.59-.11.13-1.8Z"/>
    <path class="cls-2" d="M280.73,220.15c0-.85.13-1.7.41-2.51.25-.73.65-1.4,1.17-1.97.51-.55,1.13-.99,1.83-1.3.74-.33,1.55-.49,2.36-.48.81-.01,1.61.15,2.36.48.69.3,1.31.74,1.82,1.3.51.58.91,1.25,1.17,1.97.27.81.41,1.65.4,2.51,0,.83-.14,1.65-.41,2.43-.27.73-.67,1.4-1.18,1.99-.51.57-1.12,1.03-1.82,1.35-.73.33-1.53.5-2.34.49-.81.01-1.6-.15-2.34-.49-.69-.32-1.31-.78-1.82-1.35-.52-.58-.93-1.25-1.19-1.99-.29-.78-.43-1.6-.42-2.43ZM282.95,220.15c0,.54.07,1.07.21,1.59.13.51.34,1,.64,1.44.27.43.64.79,1.06,1.06.99.54,2.19.54,3.19,0,.43-.27.79-.64,1.06-1.06.29-.44.51-.93.64-1.44.14-.52.21-1.05.21-1.59,0-.56-.08-1.11-.24-1.65-.15-.51-.38-1-.68-1.44-.29-.43-.67-.79-1.11-1.06-.93-.49-2.05-.49-2.98,0-.43.27-.79.64-1.06,1.06-.31.44-.55.93-.7,1.44-.15.53-.23,1.09-.22,1.65Z"/>
    <path class="cls-2" d="M305.03,226.13h-2.02v-1.9h0c-.31.68-.83,1.25-1.49,1.6-.68.38-1.44.58-2.22.57-1.22.09-2.41-.42-3.19-1.36-.76-1.11-1.13-2.43-1.06-3.77v-7.09h2.12v6.18c-.07,1.09.11,2.17.51,3.19.37.69,1.09,1.13,1.88,1.13.54,0,1.07-.12,1.55-.37.43-.24.79-.58,1.06-1,.3-.48.51-1,.62-1.55.14-.66.21-1.33.2-2.01v-5.52h2.12l-.1,11.9Z"/>
    <path class="cls-2" d="M308.59,214.18h1.94v1.85h0c.27-.61.69-1.14,1.23-1.53.49-.39,1.09-.6,1.71-.61.25,0,.5.01.75.05l.63.12v1.96c-.19-.07-.38-.13-.58-.16-.19-.03-.38-.05-.57-.05-.93,0-1.79.51-2.24,1.32-.61,1.08-.9,2.32-.84,3.56v5.44h-2.12l.1-11.94Z"/>
    <path class="cls-2" d="M322.63,220.15c0-.85.13-1.7.4-2.51.26-.73.66-1.4,1.18-1.97.51-.55,1.13-.99,1.82-1.3.75-.33,1.55-.49,2.37-.48.81-.01,1.61.15,2.35.48.69.3,1.32.74,1.83,1.3.52.57.91,1.25,1.16,1.97.28.8.42,1.65.41,2.51,0,.83-.14,1.65-.42,2.43-.26.73-.66,1.4-1.17,1.99-1.05,1.19-2.57,1.86-4.15,1.84-.81.01-1.6-.15-2.34-.49-.7-.32-1.32-.78-1.83-1.35-.52-.58-.92-1.25-1.18-1.99-.29-.78-.43-1.6-.42-2.43ZM324.84,220.15c0,.54.07,1.07.21,1.59.13.51.34,1,.64,1.44.27.43.63.79,1.06,1.06.99.55,2.19.55,3.19,0,.43-.27.79-.64,1.06-1.06.29-.44.51-.93.64-1.44.14-.52.21-1.05.21-1.59,0-.56-.08-1.11-.24-1.65-.15-.52-.38-1-.69-1.44-.27-.43-.63-.79-1.06-1.06-.46-.25-.97-.38-1.49-.37-.52,0-1.04.12-1.5.37-.43.27-.79.64-1.06,1.06-.31.44-.55.93-.7,1.44-.17.53-.26,1.09-.27,1.65Z"/>
    <path class="cls-2" d="M349.72,226.13h-2.41l-2.93-10.02h0l-2.87,10.02h-2.41l-3.64-11.94h2.28l2.6,9.88h0l2.88-9.88h2.46l2.85,9.88h0l2.75-9.88h2.04l-3.6,11.94Z"/>
    <path class="cls-2" d="M355.4,214.18h2.02v1.9h0c.31-.68.83-1.24,1.49-1.6.67-.39,1.44-.59,2.22-.58,1.22-.09,2.41.42,3.19,1.36.75,1.11,1.13,2.44,1.06,3.78v7.09h-2.12v-6.18c.07-1.09-.11-2.17-.51-3.19-.37-.7-1.1-1.13-1.89-1.13-.54-.01-1.06.11-1.54.36-.43.24-.8.59-1.06,1.01-.3.48-.51,1.01-.63,1.56-.14.65-.2,1.32-.2,1.99v5.53h-2.12l.11-11.9Z"/>
    <path class="cls-2" d="M377.6,211.51h-2.35v-2.47h2.35v2.47ZM375.38,214.18h2.12v11.94h-2.12v-11.94Z"/>
    <path class="cls-2" d="M389.29,224.44h0c-.16.25-.35.48-.56.68-.25.25-.53.46-.83.64-.34.19-.69.35-1.06.47-.45.12-.91.18-1.38.18-.77.02-1.54-.17-2.21-.55-.61-.36-1.13-.86-1.51-1.45-.41-.65-.7-1.37-.86-2.12-.19-.77-.28-1.57-.28-2.37,0-.78.1-1.55.3-2.3.18-.69.49-1.35.9-1.93.41-.55.93-1,1.53-1.32.65-.34,1.39-.51,2.12-.5.83-.04,1.65.16,2.38.55.56.34,1.03.81,1.37,1.37h0v-7.25h2.12v17.56h-2l-.04-1.65ZM382.75,220.11c-.02.5.03,1.01.15,1.5.11.51.3,1.01.55,1.47.25.43.58.81.98,1.11.42.3.93.46,1.44.45.54.02,1.06-.13,1.52-.41.43-.27.79-.63,1.06-1.06.27-.45.47-.93.59-1.44.12-.5.18-1.01.18-1.53,0-.56-.07-1.11-.2-1.66-.13-.51-.34-1-.63-1.44-.27-.43-.63-.79-1.06-1.06-.45-.26-.96-.39-1.48-.38-.51-.01-1.01.12-1.44.38-.39.26-.73.61-.98,1.01-.25.44-.44.92-.54,1.42-.12.54-.17,1.1-.15,1.66Z"/>
    <path class="cls-2" d="M403.51,225.64l-.65.24c-.24.09-.49.18-.74.24-.28.07-.59.14-.96.2-.41.05-.82.08-1.23.07-.89.02-1.78-.14-2.6-.47-.7-.28-1.32-.73-1.82-1.31-.49-.6-.85-1.29-1.06-2.04-.24-.86-.36-1.75-.35-2.64,0-.83.12-1.65.37-2.44.23-.7.59-1.35,1.06-1.91.46-.53,1.03-.96,1.67-1.25.69-.3,1.43-.46,2.18-.45.82-.02,1.64.15,2.38.52.62.33,1.15.82,1.53,1.41.4.65.68,1.37.83,2.12.17.88.26,1.78.25,2.68h-8.07c0,.55.09,1.1.3,1.61.19.46.47.89.82,1.25.34.35.75.62,1.2.82.45.19.93.29,1.41.3.36,0,.71-.04,1.06-.13.36-.1.7-.19,1.06-.31.29-.1.57-.23.84-.39.2-.11.39-.23.57-.37l-.05,2.23ZM402.15,219c0-.44-.06-.87-.19-1.28-.11-.39-.29-.75-.54-1.06-.24-.3-.54-.55-.88-.72-.38-.17-.79-.26-1.2-.25-.46-.01-.91.09-1.32.31-.35.2-.67.46-.91.79-.24.32-.43.68-.55,1.06-.12.38-.21.77-.25,1.17h5.85Z"/>
    <path class="cls-2" d="M407.16,214.18h2.02v1.9h.05c.3-.69.83-1.25,1.49-1.6.67-.39,1.43-.59,2.21-.58,1.22-.09,2.41.42,3.19,1.36.75,1.11,1.13,2.44,1.06,3.78v7.09h-2.12v-6.18c.07-1.09-.11-2.17-.51-3.19-.37-.7-1.1-1.13-1.89-1.13-.54-.01-1.06.11-1.54.36-.43.24-.8.59-1.06,1.01-.3.48-.51,1.01-.63,1.56-.13.65-.2,1.32-.19,1.99v5.53h-2.12l.05-11.9Z"/>
    <path class="cls-2" d="M426.73,215.97h-2.99v6.53c-.04.58.14,1.15.52,1.59.31.35.76.55,1.23.54.28,0,.56-.04.83-.13.2-.08.4-.18.58-.3v1.87c-.26.09-.53.17-.81.22-.32.07-.64.11-.97.11-.92.05-1.83-.24-2.55-.83-.68-.7-1.02-1.66-.93-2.63v-6.98h-2.55v-1.78h2.55v-2.76l2.12-.7v3.46h2.99l-.03,1.78Z"/>
    <path class="cls-2" d="M431.82,211.51h-2.35v-2.47h2.35v2.47ZM429.61,214.18h2.12v11.94h-2.12v-11.94Z"/>
    <path class="cls-2" d="M441.52,215.97h-2.99v6.53c-.04.58.14,1.15.52,1.59.32.35.76.54,1.23.54.28,0,.56-.04.83-.13.21-.08.41-.18.59-.3v1.87c-.27.09-.54.17-.82.22-.32.07-.64.11-.97.11-.92.05-1.83-.24-2.55-.83-.67-.7-1.01-1.66-.92-2.63v-6.98h-2.56v-1.78h2.56v-2.76l2.12-.7v3.46h2.99l-.04,1.78Z"/>
    <path class="cls-2" d="M443.29,229.36c.15.06.3.1.46.13.17.04.34.06.52.06.43,0,.85-.15,1.17-.44.3-.28.57-.6.78-.96.18-.31.32-.65.41-1,.06-.18.1-.37.13-.56-.02-.2-.07-.39-.15-.57l-.25-.69-3.83-11.15h2.28l3.04,9.88h0l3.11-9.88h2.12l-4.16,12.2c-.2.58-.4,1.16-.63,1.74-.2.56-.47,1.1-.81,1.59-.31.47-.71.87-1.19,1.17-.52.31-1.12.46-1.73.44-.27,0-.55,0-.82-.05l-.61-.11.16-1.8Z"/>
  </g>
</svg>