<?xml version="1.0" encoding="utf-8"?>
<!-- Generator: Adobe Illustrator 16.0.0, SVG Export Plug-In . SVG Version: 6.00 Build 0)  -->
<!DOCTYPE svg PUBLIC "-//W3C//DTD SVG 1.1//EN" "http://www.w3.org/Graphics/SVG/1.1/DTD/svg11.dtd">
<svg version="1.1" id="VECTOR_ARTWORK" xmlns="http://www.w3.org/2000/svg" xmlns:xlink="http://www.w3.org/1999/xlink" x="0px"
	 y="0px" width="750px" height="450px" viewBox="0 0 750 450" enable-background="new 0 0 750 450" xml:space="preserve">
<path id="path3133" fill="#ED2224" d="M207.783,76.596c0,0-21.625-9.474-57.827-9.474h-0.013c-36.204,0-57.838,9.473-57.838,9.473
	s-1.938,41.938,6.277,65.646c14.5,41.69,51.556,53.401,51.556,53.401h0.012h0.011c0,0,37.051-11.711,51.557-53.401
	C209.726,118.53,207.783,76.596,207.783,76.596"/>
<path id="path3135" fill="#FFFFFF" d="M188.384,112.747v23.104h-26.956v26.955h-23.106v-26.955h-26.954v-23.104h26.954v-26.95
	h23.101l0.007,26.95H188.384"/>
<g id="b1yhp1bwV">
	<g>
		<g enable-background="new    ">
			<path fill="#444446" d="M159.047,293.198h-48.959c-1.252,0-2.602-0.148-4.044-0.443c-1.444-0.297-2.871-0.758-4.28-1.385
				c-1.409-0.625-2.758-1.437-4.045-2.429c-1.287-0.989-2.427-2.19-3.419-3.604c-0.991-1.406-1.783-3.045-2.375-4.904
				c-0.591-1.861-0.887-3.959-0.887-6.289V237.4c0-1.254,0.146-2.603,0.443-4.045c0.296-1.443,0.757-2.871,1.383-4.281
				c0.627-1.409,1.444-2.756,2.454-4.045c1.01-1.287,2.219-2.428,3.626-3.418c1.41-0.991,3.036-1.783,4.881-2.375
				c1.846-0.592,3.933-0.887,6.264-0.887h48.959v13.568h-48.959c-1.774,0-3.131,0.47-4.07,1.409c-0.938,0.938-1.41,2.331-1.41,4.176
				v36.642c0,1.74,0.479,3.09,1.437,4.045c0.958,0.959,2.305,1.437,4.044,1.437h48.959L159.047,293.198L159.047,293.198z"/>
			<path fill="#444446" d="M185.563,248.936h47.655V218.35h13.571v74.85h-13.571v-30.588h-47.655v30.588h-13.571v-74.85h13.571
				V248.936L185.563,248.936z"/>
			<path fill="#444446" d="M366.157,293.198h-61.902c-0.976,0-1.879-0.175-2.714-0.521c-0.835-0.35-1.558-0.825-2.166-1.436
				c-0.61-0.609-1.088-1.332-1.436-2.166c-0.352-0.836-0.521-1.74-0.521-2.716v-68.01h13.57v61.275h55.17L366.157,293.198
				L366.157,293.198z"/>
			<path fill="#444446" d="M453.532,262.925c0,4.56-0.783,8.751-2.352,12.578c-1.563,3.828-3.741,7.134-6.521,9.917
				c-2.784,2.783-6.08,4.949-9.896,6.498c-3.811,1.549-7.959,2.322-12.445,2.322h-18.373c-4.487,0-8.646-0.773-12.479-2.322
				c-3.827-1.549-7.134-3.715-9.916-6.498c-2.784-2.783-4.968-6.089-6.55-9.917c-1.584-3.827-2.375-8.021-2.375-12.578v-14.303
				c0-4.522,0.791-8.707,2.375-12.552c1.582-3.846,3.766-7.151,6.55-9.918c2.782-2.768,6.089-4.935,9.916-6.498
				c3.828-1.565,7.987-2.351,12.479-2.351h18.373c4.486,0,8.64,0.783,12.445,2.351c3.813,1.565,7.107,3.729,9.896,6.498
				c2.78,2.767,4.959,6.072,6.521,9.918c1.564,3.845,2.352,8.029,2.352,12.552V262.925L453.532,262.925z M439.962,248.622
				c0-2.679-0.427-5.104-1.279-7.28c-0.854-2.175-2.054-4.035-3.601-5.585c-1.55-1.548-3.41-2.748-5.584-3.603
				c-2.178-0.854-4.569-1.277-7.179-1.277h-18.373c-2.646,0-5.058,0.426-7.229,1.277c-2.177,0.854-4.046,2.055-5.609,3.603
				c-1.565,1.55-2.774,3.41-3.631,5.585c-0.852,2.176-1.272,4.602-1.272,7.28v14.302c0,2.682,0.425,5.106,1.272,7.281
				c0.854,2.175,2.063,4.036,3.631,5.585c1.563,1.549,3.438,2.748,5.609,3.601c2.173,0.854,4.583,1.279,7.229,1.279h18.27
				c2.646,0,5.055-0.426,7.229-1.279c2.175-0.853,4.045-2.053,5.607-3.601c1.564-1.549,2.775-3.41,3.627-5.585
				c0.854-2.175,1.279-4.602,1.279-7.281L439.962,248.622L439.962,248.622z"/>
			<path fill="#444446" d="M540.801,286.359c0,0.976-0.174,1.88-0.521,2.716c-0.352,0.834-0.828,1.557-1.438,2.166
				c-0.605,0.608-1.33,1.086-2.166,1.436c-0.834,0.349-1.739,0.521-2.715,0.521h-48.957c-1.253,0-2.603-0.148-4.045-0.443
				c-1.445-0.297-2.871-0.758-4.281-1.385c-1.408-0.625-2.757-1.437-4.045-2.429c-1.287-0.989-2.428-2.19-3.418-3.604
				c-0.992-1.406-1.783-3.045-2.375-4.904c-0.592-1.861-0.888-3.959-0.888-6.289V237.4c0-1.254,0.146-2.603,0.439-4.045
				c0.296-1.443,0.761-2.871,1.386-4.281c0.627-1.409,1.44-2.756,2.453-4.045c1.01-1.287,2.219-2.428,3.628-3.418
				c1.407-0.991,3.033-1.783,4.88-2.375s3.935-0.887,6.266-0.887h55.17v13.568h-55.17c-1.773,0-3.132,0.47-4.072,1.409
				c-0.938,0.938-1.408,2.331-1.408,4.176v36.642c0,1.74,0.479,3.09,1.438,4.045c0.958,0.959,2.306,1.437,4.045,1.437h42.227
				v-17.017h-36.115v-13.676h42.852c0.975,0,1.879,0.184,2.715,0.549c0.834,0.365,1.56,0.86,2.166,1.487
				c0.606,0.628,1.087,1.351,1.438,2.166c0.35,0.817,0.521,1.695,0.521,2.636v30.586h-0.007v0.002H540.801z"/>
			<path fill="#444446" d="M568.622,293.198h-13.57V218.35h13.57V293.198z"/>
			<path fill="#444446" d="M659.284,287.402c0,0.976-0.185,1.88-0.549,2.716c-0.364,0.834-0.854,1.559-1.461,2.168
				c-0.609,0.608-1.331,1.086-2.166,1.435c-0.834,0.348-1.725,0.521-2.662,0.521c-0.834,0-1.682-0.156-2.53-0.47
				c-0.854-0.313-1.609-0.817-2.271-1.518l-49.586-51.775v52.719h-13.57v-69.057c0-1.392,0.393-2.651,1.175-3.783
				c0.782-1.129,1.783-1.976,3.001-2.53c1.286-0.521,2.606-0.652,3.967-0.392c1.357,0.262,2.522,0.896,3.498,1.903l49.586,51.726
				V218.35h13.57v69.053H659.284L659.284,287.402z"/>
		</g>
	</g>
	<g>
		<g>
			<g enable-background="new    ">
				<g>
					<path fill="#444446" d="M159.047,293.198h-48.959c-1.252,0-2.602-0.148-4.044-0.443c-1.444-0.297-2.871-0.758-4.28-1.385
						c-1.409-0.625-2.758-1.437-4.045-2.429c-1.287-0.989-2.427-2.19-3.419-3.604c-0.991-1.406-1.783-3.045-2.375-4.904
						c-0.591-1.861-0.887-3.959-0.887-6.289V237.4c0-1.254,0.146-2.603,0.443-4.045c0.296-1.443,0.757-2.871,1.383-4.281
						c0.627-1.409,1.444-2.756,2.454-4.045c1.01-1.287,2.219-2.428,3.626-3.418c1.41-0.991,3.036-1.783,4.881-2.375
						c1.846-0.592,3.933-0.887,6.264-0.887h48.959v13.568h-48.959c-1.774,0-3.131,0.47-4.07,1.409
						c-0.938,0.938-1.41,2.331-1.41,4.176v36.642c0,1.74,0.479,3.09,1.437,4.045c0.958,0.959,2.305,1.437,4.044,1.437h48.959
						L159.047,293.198L159.047,293.198z"/>
					<path fill="#444446" d="M185.563,248.936h47.655V218.35h13.571v74.85h-13.571v-30.588h-47.655v30.588h-13.571v-74.85h13.571
						V248.936L185.563,248.936z"/>
					<path fill="#444446" d="M366.157,293.198h-61.902c-0.976,0-1.879-0.175-2.714-0.521c-0.835-0.35-1.558-0.825-2.166-1.436
						c-0.61-0.609-1.088-1.332-1.436-2.166c-0.352-0.836-0.521-1.74-0.521-2.716v-68.01h13.57v61.275h55.17L366.157,293.198
						L366.157,293.198z"/>
					<path fill="#444446" d="M453.532,262.925c0,4.56-0.783,8.751-2.352,12.578c-1.563,3.828-3.741,7.134-6.521,9.917
						c-2.784,2.783-6.08,4.949-9.896,6.498c-3.811,1.549-7.959,2.322-12.445,2.322h-18.373c-4.487,0-8.646-0.773-12.479-2.322
						c-3.827-1.549-7.134-3.715-9.916-6.498c-2.784-2.783-4.968-6.089-6.55-9.917c-1.584-3.827-2.375-8.021-2.375-12.578v-14.303
						c0-4.522,0.791-8.707,2.375-12.552c1.582-3.846,3.766-7.151,6.55-9.918c2.782-2.768,6.089-4.935,9.916-6.498
						c3.828-1.565,7.987-2.351,12.479-2.351h18.373c4.486,0,8.64,0.783,12.445,2.351c3.813,1.565,7.107,3.729,9.896,6.498
						c2.78,2.767,4.959,6.072,6.521,9.918c1.564,3.845,2.352,8.029,2.352,12.552V262.925L453.532,262.925z M439.962,248.622
						c0-2.679-0.427-5.104-1.279-7.28c-0.854-2.175-2.054-4.035-3.601-5.585c-1.55-1.548-3.41-2.748-5.584-3.603
						c-2.178-0.854-4.569-1.277-7.179-1.277h-18.373c-2.646,0-5.058,0.426-7.229,1.277c-2.177,0.854-4.046,2.055-5.609,3.603
						c-1.565,1.55-2.774,3.41-3.631,5.585c-0.852,2.176-1.272,4.602-1.272,7.28v14.302c0,2.682,0.425,5.106,1.272,7.281
						c0.854,2.175,2.063,4.036,3.631,5.585c1.563,1.549,3.438,2.748,5.609,3.601c2.173,0.854,4.583,1.279,7.229,1.279h18.27
						c2.646,0,5.055-0.426,7.229-1.279c2.175-0.853,4.045-2.053,5.607-3.601c1.564-1.549,2.775-3.41,3.627-5.585
						c0.854-2.175,1.279-4.602,1.279-7.281L439.962,248.622L439.962,248.622z"/>
					<path fill="#444446" d="M540.801,286.359c0,0.976-0.174,1.88-0.521,2.716c-0.352,0.834-0.828,1.557-1.438,2.166
						c-0.605,0.608-1.33,1.086-2.166,1.436c-0.834,0.349-1.739,0.521-2.715,0.521h-48.957c-1.253,0-2.603-0.148-4.045-0.443
						c-1.445-0.297-2.871-0.758-4.281-1.385c-1.408-0.625-2.757-1.437-4.045-2.429c-1.287-0.989-2.428-2.19-3.418-3.604
						c-0.992-1.406-1.783-3.045-2.375-4.904c-0.592-1.861-0.888-3.959-0.888-6.289V237.4c0-1.254,0.146-2.603,0.439-4.045
						c0.296-1.443,0.761-2.871,1.386-4.281c0.627-1.409,1.44-2.756,2.453-4.045c1.01-1.287,2.219-2.428,3.628-3.418
						c1.407-0.991,3.033-1.783,4.88-2.375s3.935-0.887,6.266-0.887h55.17v13.568h-55.17c-1.773,0-3.132,0.47-4.072,1.409
						c-0.938,0.938-1.408,2.331-1.408,4.176v36.642c0,1.74,0.479,3.09,1.438,4.045c0.958,0.959,2.306,1.437,4.045,1.437h42.227
						v-17.017h-36.115v-13.676h42.852c0.975,0,1.879,0.184,2.715,0.549c0.834,0.365,1.56,0.86,2.166,1.487
						c0.606,0.628,1.087,1.351,1.438,2.166c0.35,0.817,0.521,1.695,0.521,2.636v30.586h-0.007v0.002H540.801z"/>
					<path fill="#444446" d="M568.622,293.198h-13.57V218.35h13.57V293.198z"/>
					<path fill="#444446" d="M659.284,287.402c0,0.976-0.185,1.88-0.549,2.716c-0.364,0.834-0.854,1.559-1.461,2.168
						c-0.609,0.608-1.331,1.086-2.166,1.435c-0.834,0.348-1.725,0.521-2.662,0.521c-0.834,0-1.682-0.156-2.53-0.47
						c-0.854-0.313-1.609-0.817-2.271-1.518l-49.586-51.775v52.719h-13.57v-69.057c0-1.392,0.393-2.651,1.175-3.783
						c0.782-1.129,1.783-1.976,3.001-2.53c1.286-0.521,2.606-0.652,3.967-0.392c1.357,0.262,2.522,0.896,3.498,1.903l49.586,51.726
						V218.35h13.57v69.053H659.284L659.284,287.402z"/>
				</g>
			</g>
			<g enable-background="new    ">
				<g>
					<path fill="#444446" d="M159.047,293.198h-48.959c-1.252,0-2.602-0.148-4.044-0.443c-1.444-0.297-2.871-0.758-4.28-1.385
						c-1.409-0.625-2.758-1.437-4.045-2.429c-1.287-0.989-2.427-2.19-3.419-3.604c-0.991-1.406-1.783-3.045-2.375-4.904
						c-0.591-1.861-0.887-3.959-0.887-6.289V237.4c0-1.254,0.146-2.603,0.443-4.045c0.296-1.443,0.757-2.871,1.383-4.281
						c0.627-1.409,1.444-2.756,2.454-4.045c1.01-1.287,2.219-2.428,3.626-3.418c1.41-0.991,3.036-1.783,4.881-2.375
						c1.846-0.592,3.933-0.887,6.264-0.887h48.959v13.568h-48.959c-1.774,0-3.131,0.47-4.07,1.409
						c-0.938,0.938-1.41,2.331-1.41,4.176v36.642c0,1.74,0.479,3.09,1.437,4.045c0.958,0.959,2.305,1.437,4.044,1.437h48.959
						L159.047,293.198L159.047,293.198z"/>
					<path fill="#444446" d="M185.563,248.936h47.655V218.35h13.571v74.85h-13.571v-30.588h-47.655v30.588h-13.571v-74.85h13.571
						V248.936L185.563,248.936z"/>
					<path fill="#444446" d="M366.157,293.198h-61.902c-0.976,0-1.879-0.175-2.714-0.521c-0.835-0.35-1.558-0.825-2.166-1.436
						c-0.61-0.609-1.088-1.332-1.436-2.166c-0.352-0.836-0.521-1.74-0.521-2.716v-68.01h13.57v61.275h55.17L366.157,293.198
						L366.157,293.198z"/>
					<path fill="#444446" d="M453.532,262.925c0,4.56-0.783,8.751-2.352,12.578c-1.563,3.828-3.741,7.134-6.521,9.917
						c-2.784,2.783-6.08,4.949-9.896,6.498c-3.811,1.549-7.959,2.322-12.445,2.322h-18.373c-4.487,0-8.646-0.773-12.479-2.322
						c-3.827-1.549-7.134-3.715-9.916-6.498c-2.784-2.783-4.968-6.089-6.55-9.917c-1.584-3.827-2.375-8.021-2.375-12.578v-14.303
						c0-4.522,0.791-8.707,2.375-12.552c1.582-3.846,3.766-7.151,6.55-9.918c2.782-2.768,6.089-4.935,9.916-6.498
						c3.828-1.565,7.987-2.351,12.479-2.351h18.373c4.486,0,8.64,0.783,12.445,2.351c3.813,1.565,7.107,3.729,9.896,6.498
						c2.78,2.767,4.959,6.072,6.521,9.918c1.564,3.845,2.352,8.029,2.352,12.552V262.925L453.532,262.925z M439.962,248.622
						c0-2.679-0.427-5.104-1.279-7.28c-0.854-2.175-2.054-4.035-3.601-5.585c-1.55-1.548-3.41-2.748-5.584-3.603
						c-2.178-0.854-4.569-1.277-7.179-1.277h-18.373c-2.646,0-5.058,0.426-7.229,1.277c-2.177,0.854-4.046,2.055-5.609,3.603
						c-1.565,1.55-2.774,3.41-3.631,5.585c-0.852,2.176-1.272,4.602-1.272,7.28v14.302c0,2.682,0.425,5.106,1.272,7.281
						c0.854,2.175,2.063,4.036,3.631,5.585c1.563,1.549,3.438,2.748,5.609,3.601c2.173,0.854,4.583,1.279,7.229,1.279h18.27
						c2.646,0,5.055-0.426,7.229-1.279c2.175-0.853,4.045-2.053,5.607-3.601c1.564-1.549,2.775-3.41,3.627-5.585
						c0.854-2.175,1.279-4.602,1.279-7.281L439.962,248.622L439.962,248.622z"/>
					<path fill="#444446" d="M540.801,286.359c0,0.976-0.174,1.88-0.521,2.716c-0.352,0.834-0.828,1.557-1.438,2.166
						c-0.605,0.608-1.33,1.086-2.166,1.436c-0.834,0.349-1.739,0.521-2.715,0.521h-48.957c-1.253,0-2.603-0.148-4.045-0.443
						c-1.445-0.297-2.871-0.758-4.281-1.385c-1.408-0.625-2.757-1.437-4.045-2.429c-1.287-0.989-2.428-2.19-3.418-3.604
						c-0.992-1.406-1.783-3.045-2.375-4.904c-0.592-1.861-0.888-3.959-0.888-6.289V237.4c0-1.254,0.146-2.603,0.439-4.045
						c0.296-1.443,0.761-2.871,1.386-4.281c0.627-1.409,1.44-2.756,2.453-4.045c1.01-1.287,2.219-2.428,3.628-3.418
						c1.407-0.991,3.033-1.783,4.88-2.375s3.935-0.887,6.266-0.887h55.17v13.568h-55.17c-1.773,0-3.132,0.47-4.072,1.409
						c-0.938,0.938-1.408,2.331-1.408,4.176v36.642c0,1.74,0.479,3.09,1.438,4.045c0.958,0.959,2.306,1.437,4.045,1.437h42.227
						v-17.017h-36.115v-13.676h42.852c0.975,0,1.879,0.184,2.715,0.549c0.834,0.365,1.56,0.86,2.166,1.487
						c0.606,0.628,1.087,1.351,1.438,2.166c0.35,0.817,0.521,1.695,0.521,2.636v30.586h-0.007v0.002H540.801z"/>
					<path fill="#444446" d="M568.622,293.198h-13.57V218.35h13.57V293.198z"/>
					<path fill="#444446" d="M659.284,287.402c0,0.976-0.185,1.88-0.549,2.716c-0.364,0.834-0.854,1.559-1.461,2.168
						c-0.609,0.608-1.331,1.086-2.166,1.435c-0.834,0.348-1.725,0.521-2.662,0.521c-0.834,0-1.682-0.156-2.53-0.47
						c-0.854-0.313-1.609-0.817-2.271-1.518l-49.586-51.775v52.719h-13.57v-69.057c0-1.392,0.393-2.651,1.175-3.783
						c0.782-1.129,1.783-1.976,3.001-2.53c1.286-0.521,2.606-0.652,3.967-0.392c1.357,0.262,2.522,0.896,3.498,1.903l49.586,51.726
						V218.35h13.57v69.053H659.284L659.284,287.402z"/>
				</g>
			</g>
		</g>
	</g>
</g>
<g id="aeUwZ4rQI">
	<g>
		<g enable-background="new    ">
			<path fill="#ED2224" d="M281.652,257.029c0,1.402-0.271,2.716-0.818,3.938c-0.546,1.223-1.274,2.288-2.188,3.197
				c-0.907,0.91-1.976,1.625-3.193,2.146c-1.226,0.52-2.51,0.777-3.86,0.777c-1.404,0-2.717-0.26-3.938-0.777
				c-1.225-0.521-2.288-1.235-3.196-2.146c-0.91-0.909-1.625-1.977-2.146-3.197c-0.52-1.222-0.777-2.533-0.777-3.938
				c0-1.354,0.261-2.639,0.777-3.86c0.521-1.222,1.235-2.288,2.146-3.196c0.908-0.91,1.975-1.64,3.196-2.185
				c1.222-0.547,2.532-0.819,3.938-0.819c1.354,0,2.638,0.272,3.86,0.819c1.221,0.546,2.286,1.272,3.193,2.185
				c0.91,0.908,1.642,1.977,2.188,3.196C281.378,254.391,281.652,255.677,281.652,257.029z"/>
		</g>
	</g>
</g>
<g enable-background="new    ">
	<path fill="#FF0000" d="M99.3,352.673c0.016,1.47,0.211,2.789,0.586,3.961c0.375,1.173,0.914,2.164,1.617,2.978
		s1.559,1.435,2.565,1.863c1.007,0.428,2.146,0.646,3.41,0.646c2.703,0,5.258-0.945,7.664-2.836v2.952
		c-2.297,1.642-5.078,2.462-8.344,2.462c-1.609,0-3.07-0.281-4.383-0.845c-1.313-0.563-2.431-1.379-3.353-2.449
		c-0.922-1.069-1.633-2.387-2.133-3.948s-0.75-3.345-0.75-5.345c0-1.797,0.273-3.461,0.82-4.991
		c0.547-1.531,1.305-2.854,2.272-3.974s2.117-1.992,3.445-2.625s2.781-0.948,4.359-0.948c1.547,0,2.913,0.27,4.102,0.809
		c1.188,0.539,2.184,1.31,2.988,2.31c0.804,1,1.418,2.22,1.84,3.656c0.422,1.438,0.633,3.047,0.633,4.827v1.5L99.3,352.673
		L99.3,352.673z M113.55,350.048c-0.047-2.5-0.642-4.438-1.781-5.813s-2.727-2.063-4.758-2.063c-1.016,0-1.957,0.18-2.824,0.539
		s-1.629,0.879-2.285,1.559c-0.655,0.682-1.198,1.508-1.629,2.484c-0.43,0.977-0.729,2.074-0.901,3.293L113.55,350.048
		L113.55,350.048z"/>
	<path fill="#FF0000" d="M147.722,361.813c-3.453,1.938-7.109,2.906-10.969,2.906c-2.438,0-4.625-0.418-6.563-1.254
		c-1.938-0.836-3.586-2-4.944-3.492c-1.359-1.492-2.402-3.271-3.13-5.344c-0.727-2.07-1.09-4.348-1.09-6.832
		c0-1.641,0.177-3.219,0.527-4.734c0.351-1.515,0.867-2.938,1.547-4.266s1.512-2.531,2.496-3.609s2.113-2.008,3.387-2.789
		c1.274-0.779,2.676-1.383,4.207-1.805s3.181-0.633,4.945-0.633c3.328,0,6.297,0.594,8.906,1.781v3.445
		c-2.875-1.596-5.97-2.393-9.281-2.393c-2.047,0-3.898,0.375-5.555,1.125c-1.657,0.75-3.066,1.781-4.23,3.096
		c-1.164,1.313-2.066,2.861-2.707,4.65s-0.969,3.729-0.984,5.824c-0.016,2.076,0.255,3.996,0.81,5.754s1.379,3.275,2.473,4.561
		c1.095,1.28,2.445,2.279,4.056,3c1.609,0.719,3.469,1.076,5.577,1.076c2.845,0,5.313-0.594,7.406-1.779v-10.242h-7.641v-2.836
		h10.758V361.813L147.722,361.813z"/>
	<path fill="#FF0000" d="M164.832,364.695c-1.781,0-3.379-0.297-4.793-0.891c-1.414-0.595-2.621-1.435-3.621-2.521
		s-1.767-2.388-2.297-3.902c-0.531-1.515-0.798-3.194-0.798-5.039c0-2,0.281-3.788,0.845-5.366c0.563-1.578,1.362-2.918,2.401-4.021
		s2.293-1.94,3.763-2.521c1.469-0.58,3.108-0.867,4.922-0.867c1.733,0,3.297,0.285,4.688,0.854c1.392,0.57,2.57,1.396,3.539,2.474
		c0.971,1.078,1.711,2.392,2.229,3.938c0.516,1.547,0.771,3.306,0.771,5.272c0,1.875-0.27,3.582-0.809,5.121s-1.31,2.863-2.31,3.974
		s-2.22,1.969-3.655,2.578C168.27,364.391,166.644,364.695,164.832,364.695z M165.066,342.173c-1.313,0-2.5,0.228-3.563,0.681
		c-1.063,0.453-1.974,1.112-2.73,1.979s-1.34,1.931-1.746,3.188c-0.405,1.258-0.608,2.684-0.608,4.275
		c0,1.5,0.203,2.854,0.608,4.057c0.406,1.203,0.98,2.232,1.724,3.094c0.742,0.859,1.645,1.52,2.707,1.979
		c1.062,0.459,2.25,0.691,3.563,0.691c1.344,0,2.531-0.225,3.563-0.668c1.031-0.445,1.905-1.096,2.625-1.945
		c0.719-0.852,1.262-1.896,1.629-3.129s0.551-2.643,0.551-4.219c0-3.234-0.719-5.707-2.156-7.418
		C169.795,343.027,167.738,342.173,165.066,342.173z"/>
	<path fill="#FF0000" d="M191.082,364.134h-2.859l-9.188-24h3.305l6.633,18.281c0.406,1.108,0.664,2.086,0.773,2.931h0.094
		c0.188-1.125,0.43-2.07,0.727-2.837l6.867-18.375h3.211L191.082,364.134z"/>
	<path fill="#FF0000" d="M206.035,352.673c0.016,1.47,0.211,2.789,0.586,3.961c0.375,1.173,0.914,2.164,1.616,2.978
		c0.703,0.813,1.56,1.435,2.565,1.863c1.007,0.428,2.146,0.646,3.41,0.646c2.703,0,5.258-0.945,7.664-2.836v2.952
		c-2.297,1.642-5.078,2.462-8.345,2.462c-1.608,0-3.069-0.281-4.383-0.845c-1.313-0.563-2.431-1.379-3.353-2.449
		c-0.922-1.069-1.633-2.387-2.133-3.948s-0.75-3.345-0.75-5.345c0-1.797,0.272-3.461,0.819-4.991
		c0.547-1.531,1.306-2.854,2.272-3.974c0.968-1.119,2.117-1.992,3.444-2.625c1.328-0.633,2.781-0.948,4.358-0.948
		c1.548,0,2.914,0.27,4.104,0.809c1.188,0.539,2.184,1.31,2.987,2.31c0.805,1,1.418,2.22,1.84,3.656
		c0.423,1.438,0.634,3.047,0.634,4.827v1.5L206.035,352.673L206.035,352.673z M220.285,350.048c-0.048-2.5-0.643-4.438-1.781-5.813
		c-1.14-1.375-2.728-2.063-4.758-2.063c-1.018,0-1.957,0.18-2.824,0.539s-1.629,0.879-2.285,1.559
		c-0.656,0.682-1.199,1.508-1.629,2.484s-0.729,2.074-0.902,3.293L220.285,350.048L220.285,350.048z"/>
	<path fill="#FF0000" d="M241.168,343.204c-0.703-0.517-1.609-0.772-2.72-0.772c-0.797,0-1.5,0.151-2.108,0.457
		c-0.609,0.305-1.146,0.715-1.604,1.229c-0.461,0.515-0.853,1.112-1.173,1.793c-0.318,0.68-0.577,1.387-0.771,2.121
		c-0.195,0.733-0.336,1.477-0.422,2.227c-0.087,0.75-0.13,1.462-0.13,2.134v11.741h-2.978v-24h2.978v5.134h0.095
		c0.28-0.875,0.637-1.66,1.064-2.354c0.431-0.695,0.927-1.281,1.488-1.759c0.563-0.478,1.176-0.84,1.84-1.09
		s1.363-0.375,2.099-0.375c0.483,0,0.919,0.031,1.302,0.095s0.729,0.155,1.043,0.28L241.168,343.204L241.168,343.204z"/>
	<path fill="#FF0000" d="M261.628,364.134v-13.827c0-5.423-1.97-8.134-5.906-8.134c-1.047,0-2.016,0.207-2.905,0.621
		c-0.891,0.414-1.66,0.988-2.31,1.724c-0.648,0.734-1.156,1.604-1.522,2.612c-0.366,1.009-0.552,2.099-0.552,3.271v13.733h-3v-24h3
		v4.173h0.095c1.78-3.156,4.461-4.733,8.039-4.733c2.625,0,4.625,0.852,6,2.555s2.063,4.164,2.063,7.383v14.625L261.628,364.134
		L261.628,364.134z"/>
	<path fill="#FF0000" d="M302.011,364.134v-14.108c0-1.438-0.108-2.651-0.328-3.646c-0.219-0.993-0.559-1.801-1.02-2.426
		s-1.048-1.078-1.759-1.358c-0.711-0.281-1.56-0.423-2.543-0.423c-0.875,0-1.703,0.207-2.483,0.621
		c-0.781,0.414-1.465,0.983-2.051,1.711c-0.587,0.728-1.048,1.582-1.384,2.565c-0.336,0.984-0.505,2.048-0.505,3.188v13.875h-3
		v-14.413c0-5.031-1.93-7.548-5.788-7.548c-0.892,0-1.72,0.199-2.483,0.599c-0.766,0.398-1.435,0.957-2.004,1.677
		c-0.57,0.719-1.018,1.581-1.336,2.59c-0.32,1.008-0.48,2.121-0.48,3.34v13.758h-3v-24h3v3.892h0.095
		c1.688-2.969,4.147-4.452,7.383-4.452c0.845,0,1.642,0.129,2.392,0.387s1.422,0.617,2.016,1.078
		c0.596,0.461,1.105,1.012,1.535,1.651c0.431,0.641,0.754,1.345,0.974,2.108c0.845-1.702,1.94-3,3.293-3.891
		c1.353-0.892,2.88-1.336,4.582-1.336c5.267,0,7.897,3.25,7.897,9.75v14.813L302.011,364.134L302.011,364.134z"/>
	<path fill="#FF0000" d="M313.66,352.673c0.016,1.47,0.211,2.789,0.586,3.961c0.375,1.173,0.914,2.164,1.616,2.978
		c0.703,0.813,1.56,1.435,2.565,1.863c1.007,0.428,2.146,0.646,3.41,0.646c2.703,0,5.257-0.945,7.664-2.836v2.952
		c-2.297,1.642-5.078,2.462-8.344,2.462c-1.608,0-3.069-0.281-4.383-0.845c-1.313-0.563-2.431-1.379-3.353-2.449
		c-0.922-1.069-1.633-2.387-2.133-3.948s-0.75-3.345-0.75-5.345c0-1.797,0.272-3.461,0.819-4.991
		c0.547-1.531,1.306-2.854,2.272-3.974c0.968-1.119,2.117-1.992,3.445-2.625c1.327-0.633,2.78-0.948,4.358-0.948
		c1.546,0,2.913,0.27,4.102,0.809c1.187,0.539,2.184,1.31,2.987,2.31c0.805,1,1.418,2.22,1.84,3.656
		c0.423,1.438,0.634,3.047,0.634,4.827v1.5L313.66,352.673L313.66,352.673z M327.908,350.048c-0.047-2.5-0.642-4.438-1.78-5.813
		c-1.14-1.375-2.728-2.063-4.757-2.063c-1.018,0-1.957,0.18-2.824,0.539s-1.629,0.879-2.285,1.559
		c-0.656,0.682-1.199,1.508-1.629,2.484s-0.729,2.074-0.902,3.293L327.908,350.048L327.908,350.048z"/>
	<path fill="#FF0000" d="M353.081,364.134v-13.827c0-5.423-1.97-8.134-5.906-8.134c-1.047,0-2.017,0.207-2.906,0.621
		s-1.659,0.988-2.309,1.724c-0.649,0.734-1.156,1.604-1.523,2.612c-0.366,1.009-0.551,2.099-0.551,3.271v13.733h-3v-24h3v4.173
		h0.094c1.781-3.156,4.462-4.733,8.039-4.733c2.625,0,4.625,0.852,6,2.555s2.063,4.164,2.063,7.383v14.625L353.081,364.134
		L353.081,364.134z"/>
	<path fill="#FF0000" d="M373.612,363.854c-1.03,0.517-2.155,0.772-3.375,0.772c-3.875,0-5.813-2.233-5.813-6.703v-15.164h-4.219
		v-2.625h4.219v-6.047l3-0.983v7.03h6.188v2.625h-6.188v14.695c0,1.625,0.266,2.797,0.797,3.517
		c0.531,0.719,1.431,1.077,2.695,1.077c0.938,0,1.836-0.28,2.694-0.844L373.612,363.854L373.612,363.854z"/>
</g>
<g enable-background="new    ">
	<path d="M159.712,294.198h-49.465c-1.267,0-2.628-0.149-4.087-0.448c-1.46-0.298-2.9-0.766-4.324-1.396
		c-1.424-0.633-2.787-1.451-4.087-2.453c-1.302-1.002-2.452-2.215-3.454-3.639s-1.803-3.076-2.399-4.957
		c-0.598-1.88-0.896-3.998-0.896-6.354v-37.125c0-1.266,0.148-2.628,0.447-4.087c0.299-1.458,0.766-2.9,1.397-4.324
		s1.458-2.786,2.479-4.087c1.02-1.301,2.241-2.452,3.665-3.454c1.425-1.002,3.067-1.801,4.932-2.399
		c1.862-0.598,3.972-0.896,6.328-0.896h49.465v13.711h-49.465c-1.793,0-3.164,0.476-4.113,1.424
		c-0.949,0.949-1.424,2.354-1.424,4.22v37.021c0,1.759,0.482,3.12,1.45,4.087c0.966,0.968,2.328,1.45,4.087,1.45h49.465
		L159.712,294.198L159.712,294.198z"/>
	<path d="M186.501,249.479h48.146v-30.9h13.711v75.621h-13.711v-30.902h-48.146v30.902H172.79v-75.621h13.711V249.479z"/>
</g>
</svg>
